<svg width="155" height="26" viewBox="0 0 155 26" fill="none" xmlns="http://www.w3.org/2000/svg">
<g opacity="0.6">
<path d="M10.9344 0.291779C16.8091 0.291779 20.0439 3.02161 20.0439 7.97819C20.0439 12.2198 17.0254 14.1642 15.2282 14.9452L15.1024 15.0005L15.1722 15.1213L20.8319 24.8621H14.5855L9.83959 15.9859L9.80437 15.9231H5.48041V24.8653H0V0.291779H10.9344ZM5.48041 11.5331H10.9703C13.009 11.5331 14.4887 10.0691 14.4887 8.05114C14.4887 6.09102 13.0932 4.82515 10.9338 4.82515H5.48041V11.5331Z" fill="#DADADA"/>
<path d="M36.0104 0C43.2881 0 48.9886 5.5565 48.9886 12.6499C48.9886 16.1123 47.6429 19.2956 45.1998 21.6116C42.79 23.8962 39.5263 25.1539 36.0104 25.1539C28.6321 25.1539 23.0687 19.7785 23.0687 12.6499C23.0687 5.5565 28.7535 0 36.0104 0V0ZM36.0469 20.1464C40.1344 20.1464 43.2158 16.8927 43.2158 12.577C43.2158 8.31211 40.0671 4.97104 36.0469 4.97104C31.9594 4.97104 28.878 8.24105 28.878 12.5801C28.878 16.8959 31.9594 20.1496 36.0469 20.1496" fill="#DADADA"/>
<path d="M65.2473 0C70.7812 0 75.5308 3.1914 77.4048 8.1461H71.1163C69.7769 6.15642 67.5872 4.97104 65.2467 4.97104C61.1591 4.97104 58.0778 8.24105 58.0778 12.5801C58.0778 16.8959 61.1591 20.1496 65.2467 20.1496C66.4302 20.1494 67.5947 19.8519 68.6332 19.2844C69.6718 18.7168 70.5512 17.8975 71.1905 16.9016H77.4438C75.6315 21.9198 70.8208 25.1539 65.1379 25.1539C57.8005 25.1539 52.2666 19.7785 52.2666 12.6499C52.2666 5.5565 57.9696 0 65.2473 0Z" fill="#DADADA"/>
<path d="M118.617 0.291779L128.699 24.8621H122.91L121.115 20.3055L121.085 20.2269H110.513L110.482 20.3055L108.688 24.8621H98.2543L90.2258 14.9666L90.1887 14.9207H86.9162V24.8621H81.3981V0.291779H86.9162V10.2559H90.1906L90.2284 10.2087L98.0745 0.291779H104.288L94.7045 12.1563L94.6416 12.2349L94.7045 12.3128L103.615 23.3133L103.745 23.4743L103.826 23.2856L113.564 0.293665H118.617V0.291779ZM112.058 16.2802H119.648L119.586 16.1111L116.045 6.9865L116.015 6.90726H115.772L115.741 6.98524L112.128 16.1098L112.061 16.2802" fill="#DADADA"/>
<path d="M133.3 0.292419L137.136 7.52417L134.277 12.7839L127.596 0.292419H133.3Z" fill="#DADADA"/>
<path d="M149.883 0.292419L141.771 15.332C141.487 15.8979 141.465 16.2997 141.465 16.8475V24.8621H135.984V16.8531C135.987 16.7601 135.989 16.6727 135.991 16.5903C136.004 16.0243 136.012 15.7099 136.311 15.1565C136.925 14.0183 139.731 8.86802 139.731 8.86802L144.401 0.296192H149.885" fill="#DADADA"/>
<path d="M149.361 22.2309C149.361 21.6733 149.527 21.1282 149.837 20.6646C150.147 20.201 150.587 19.8396 151.102 19.6263C151.617 19.413 152.184 19.3572 152.731 19.466C153.278 19.5748 153.781 19.8434 154.175 20.2377C154.569 20.632 154.838 21.1343 154.947 21.6813C155.055 22.2282 155 22.7951 154.786 23.3103C154.573 23.8255 154.212 24.2659 153.748 24.5758C153.284 24.8857 152.739 25.0512 152.182 25.0513C151.434 25.0508 150.717 24.7535 150.188 24.2247C149.659 23.6958 149.362 22.9788 149.361 22.2309V22.2309ZM154.685 22.2309C154.684 21.735 154.535 21.2507 154.258 20.8392C153.982 20.4277 153.589 20.1075 153.131 19.9189C152.672 19.7304 152.168 19.6821 151.682 19.78C151.196 19.878 150.749 20.1179 150.4 20.4694C150.05 20.8208 149.812 21.2681 149.716 21.7547C149.621 22.2412 149.672 22.7452 149.862 23.2029C150.053 23.6607 150.375 24.0516 150.788 24.3263C151.201 24.601 151.686 24.7472 152.182 24.7463C152.511 24.7464 152.838 24.6813 153.142 24.5547C153.446 24.4281 153.723 24.2426 153.955 24.0088C154.188 23.775 154.371 23.4976 154.496 23.1925C154.621 22.8873 154.684 22.5605 154.682 22.2309H154.685ZM152.878 23.9168L152.205 22.3686H151.582V23.9168H151.233V20.5538H152.246C152.829 20.5538 153.202 20.9103 153.202 21.4455C153.202 21.8907 152.902 22.1825 152.546 22.3038L153.267 23.9168H152.878ZM152.194 22.0724C152.583 22.0724 152.834 21.8209 152.834 21.4486C152.834 21.116 152.624 20.865 152.194 20.865H151.579V22.0724H152.194Z" fill="#DADADA"/>
</g>
</svg>
