<svg width="208" height="26" viewBox="0 0 208 26" fill="none" xmlns="http://www.w3.org/2000/svg">
<g opacity="0.6">
<g opacity="0.22">
<path d="M16.7297 26C29.1443 26 31.2023 21.7455 31.2023 17.5922V17.1195C31.2023 12.1221 27.4514 9.82597 18.1571 9.65714L14.0078 9.58961C8.96237 9.48831 8.29849 8.50909 8.29849 7.42857C8.29849 6.34805 8.73001 5.26753 14.7049 5.26753H15.236C21.7088 5.26753 22.2068 7.32727 22.3727 8.27273H30.4057V7.93507C30.4057 4.15325 27.7501 0 16.0659 0H13.7755C2.52274 0 0.331939 3.91688 0.331939 7.66493V7.96883C0.331939 11.8857 3.15343 15.0597 12.3813 15.3299L16.6302 15.4312C22.3395 15.6 23.103 16.5117 23.103 17.9636C23.103 19.3143 22.3727 20.6312 15.8667 20.6312H15.402C9.02875 20.6312 8.16571 18.1662 8.06613 16.6468H0V17.0182C0 20.3273 1.49373 26 14.4394 26H16.7297Z" fill="white"/>
<path d="M33.1755 25.561H40.9097V15.6675H57.5067V25.561H65.2409V0.438961H57.5067V9.58961H40.9097V0.438961H33.1755V25.561Z" fill="white"/>
<path d="M68.3637 0.438961V25.561H94.7197V19.7195H75.9983V15.6H93.9562V9.85974H75.9983V6.14545H94.3878V0.438961H68.3637Z" fill="white"/>
<path d="M97.2632 0.438961V25.561H122.159V19.3143H104.997V0.438961H97.2632Z" fill="white"/>
<path d="M127.297 25.561H135.097V6.38182H145.753V0.438961H116.675V6.38182H127.297V25.561Z" fill="white"/>
<path d="M147.898 0.438961V25.561H174.254V19.7195H155.533V15.6H173.491V9.85974H155.533V6.14545H173.922V0.438961H147.898Z" fill="white"/>
<path d="M184.532 6.14545H196.249C198.507 6.14545 199.37 7.25974 199.37 8.57662V8.61039C199.37 9.99481 198.473 11.0753 196.249 11.0753H184.532V6.14545ZM184.532 16.6468H194.623C198.44 16.6468 199.768 17.9974 199.768 21.0701V23.974C199.768 24.8857 199.901 25.2571 200.133 25.561H208V25.3922C207.768 24.987 207.535 24.3455 207.535 22.3195V18.639C207.535 15.3974 205.378 13.6078 202.855 12.8649C204.481 12.3247 207.436 10.974 207.436 7.36104V6.95585C207.436 3.34286 204.946 0.438961 196.714 0.438961H176.798V25.561H184.532V16.6468Z" fill="white"/>
</g>
</g>
</svg>
