<svg width="179" height="16" viewBox="0 0 179 16" fill="none" xmlns="http://www.w3.org/2000/svg">
<g opacity="0.6">
<g opacity="0.6">
<path d="M9.63135 3.14426V15.8258H7.95482V4.52041H1.68527V15.8258H0V3.14426H9.63135Z" fill="white" fill-opacity="0.9"/>
<path d="M25.1585 9.08438V9.88568C25.1585 10.838 25.0392 11.6915 24.8005 12.4464C24.5618 13.2012 24.2184 13.8429 23.7701 14.3713C23.3219 14.8997 22.7834 15.3032 22.1547 15.5819C21.5319 15.8606 20.8333 16 20.0591 16C19.3081 16 18.6183 15.8606 17.9896 15.5819C17.3667 15.3032 16.8253 14.8997 16.3654 14.3713C15.9114 13.8429 15.5592 13.2012 15.3089 12.4464C15.0586 11.6915 14.9334 10.838 14.9334 9.88568V9.08438C14.9334 8.1321 15.0556 7.28144 15.3001 6.53239C15.5505 5.77754 15.9026 5.13591 16.3567 4.60751C16.8108 4.07331 17.3492 3.66685 17.9721 3.38813C18.6008 3.10942 19.2907 2.97006 20.0416 2.97006C20.8158 2.97006 21.5144 3.10942 22.1373 3.38813C22.766 3.66685 23.3044 4.07331 23.7527 4.60751C24.2067 5.13591 24.5531 5.77754 24.7918 6.53239C25.0363 7.28144 25.1585 8.1321 25.1585 9.08438ZM23.4907 9.88568V9.06696C23.4907 8.3121 23.4121 7.64435 23.255 7.06369C23.1036 6.48303 22.8795 5.99528 22.5826 5.60044C22.2857 5.20559 21.9219 4.90655 21.4911 4.70332C21.0662 4.50009 20.583 4.39848 20.0416 4.39848C19.5177 4.39848 19.0432 4.50009 18.6183 4.70332C18.1992 4.90655 17.8382 5.20559 17.5355 5.60044C17.2386 5.99528 17.0087 6.48303 16.8457 7.06369C16.6827 7.64435 16.6012 8.3121 16.6012 9.06696V9.88568C16.6012 10.6463 16.6827 11.3199 16.8457 11.9064C17.0087 12.487 17.2416 12.9777 17.5443 13.3783C17.8528 13.7732 18.2166 14.0722 18.6358 14.2754C19.0607 14.4787 19.5351 14.5803 20.0591 14.5803C20.6063 14.5803 21.0923 14.4787 21.5173 14.2754C21.9423 14.0722 22.3003 13.7732 22.5913 13.3783C22.8882 12.9777 23.1123 12.487 23.2637 11.9064C23.415 11.3199 23.4907 10.6463 23.4907 9.88568Z" fill="white" fill-opacity="0.9"/>
<path d="M38.2582 3.14426V4.52041H32.4427V3.14426H38.2582ZM39.7077 3.14426V15.8258H38.0225V3.14426H39.7077ZM31.8664 3.14426H33.543L33.2548 9.35438C33.2141 10.2486 33.1442 11.047 33.0452 11.7496C32.9521 12.4464 32.8182 13.0532 32.6436 13.57C32.4689 14.0809 32.2419 14.5048 31.9625 14.8416C31.6831 15.1726 31.3396 15.4193 30.9321 15.5819C30.5304 15.7445 30.0473 15.8258 29.4826 15.8258H29.0285V14.4584L29.3778 14.4322C29.7038 14.409 29.9832 14.3364 30.2161 14.2145C30.4548 14.0867 30.6556 13.8951 30.8186 13.6396C30.9874 13.3841 31.1242 13.0532 31.229 12.6467C31.3338 12.2402 31.4153 11.7438 31.4735 11.1573C31.5375 10.5651 31.587 9.87407 31.6219 9.08438L31.8664 3.14426Z" fill="white" fill-opacity="0.9"/>
<path d="M53.506 14.4584V15.8258H46.7736V14.4584H53.506ZM47.1142 3.14426V15.8258H45.4289V3.14426H47.1142ZM52.6153 8.59662V9.96407H46.7736V8.59662H52.6153ZM53.4187 3.14426V4.52041H46.7736V3.14426H53.4187Z" fill="white" fill-opacity="0.9"/>
<path d="M62.1698 9.73762H60.6592V8.6663H62.1087C62.749 8.6663 63.2671 8.5763 63.663 8.3963C64.0588 8.21629 64.347 7.96661 64.5275 7.64725C64.7079 7.32789 64.7981 6.95917 64.7981 6.5411C64.7981 6.14045 64.6992 5.77463 64.5013 5.44366C64.3033 5.10688 63.9977 4.83977 63.5844 4.64235C63.1711 4.43912 62.6384 4.33751 61.9865 4.33751C61.4975 4.33751 61.055 4.43041 60.6592 4.61622C60.2633 4.79623 59.949 5.04881 59.7161 5.37398C59.4833 5.69334 59.3669 6.06206 59.3669 6.48013H57.6816C57.6816 5.94012 57.7951 5.45527 58.0221 5.02559C58.2492 4.59009 58.5606 4.22138 58.9565 3.91943C59.3523 3.61169 59.8093 3.37652 60.3274 3.21394C60.8513 3.05135 61.4043 2.97006 61.9865 2.97006C62.6675 2.97006 63.2846 3.04845 63.8376 3.20523C64.3907 3.3562 64.8651 3.58265 65.2609 3.88459C65.6568 4.18654 65.9595 4.56106 66.1691 5.00817C66.3786 5.45527 66.4834 5.97496 66.4834 6.56723C66.4834 7.00272 66.3815 7.41208 66.1778 7.79532C65.974 8.17855 65.683 8.51533 65.3046 8.80566C64.9262 9.09599 64.4722 9.32535 63.9424 9.49374C63.4127 9.65632 62.8218 9.73762 62.1698 9.73762ZM60.6592 8.99728H62.1698C62.8858 8.99728 63.5233 9.06986 64.0821 9.21502C64.641 9.36019 65.1125 9.57213 65.4967 9.85084C65.8809 10.1296 66.172 10.475 66.3699 10.8873C66.5736 11.2938 66.6755 11.7612 66.6755 12.2896C66.6755 12.8819 66.5591 13.4074 66.3262 13.8661C66.0992 14.3248 65.7761 14.7138 65.357 15.0332C64.9379 15.3526 64.4401 15.5935 63.8638 15.7561C63.2933 15.9187 62.6675 16 61.9865 16C61.4393 16 60.8979 15.9303 60.3623 15.791C59.8326 15.6458 59.3523 15.4251 58.9215 15.129C58.4908 14.8271 58.1444 14.4438 57.8824 13.9793C57.6263 13.5148 57.4982 12.9574 57.4982 12.307H59.1835C59.1835 12.7309 59.2999 13.1199 59.5328 13.4741C59.7714 13.8283 60.1003 14.1129 60.5195 14.3277C60.9386 14.5367 61.4276 14.6413 61.9865 14.6413C62.6268 14.6413 63.1682 14.5426 63.6106 14.3451C64.0588 14.1419 64.3994 13.8661 64.6322 13.5177C64.8709 13.1635 64.9902 12.7657 64.9902 12.3244C64.9902 11.9354 64.9262 11.5986 64.7981 11.3141C64.6759 11.0238 64.4925 10.7857 64.248 10.5999C64.0094 10.4141 63.7096 10.2776 63.3486 10.1905C62.9935 10.0976 62.5802 10.0512 62.1087 10.0512H60.6592V8.99728Z" fill="white" fill-opacity="0.9"/>
<path d="M79.88 8.59662V9.96407H72.9992V8.59662H79.88ZM73.2612 3.14426V15.8258H71.5759V3.14426H73.2612ZM81.347 3.14426V15.8258H79.6704V3.14426H81.347Z" fill="white" fill-opacity="0.9"/>
<path d="M88.3867 8.3092H91.8533C92.7847 8.3092 93.5705 8.46598 94.2109 8.77953C94.8512 9.08728 95.3373 9.51987 95.6691 10.0773C96.0009 10.6347 96.1669 11.288 96.1669 12.037C96.1669 12.5944 96.0737 13.1054 95.8874 13.57C95.7011 14.0287 95.4246 14.4293 95.0579 14.7719C94.6912 15.1087 94.24 15.37 93.7044 15.5558C93.1689 15.7358 92.5518 15.8258 91.8533 15.8258H87.1031V3.14426H88.7883V14.4584H91.8533C92.4761 14.4584 92.9797 14.3451 93.3639 14.1187C93.7539 13.8864 94.0392 13.5845 94.2196 13.2128C94.4001 12.8412 94.4903 12.4435 94.4903 12.0196C94.4903 11.5957 94.4001 11.2067 94.2196 10.8525C94.0392 10.4983 93.7539 10.2167 93.3639 10.0076C92.9797 9.79278 92.4761 9.68536 91.8533 9.68536H88.3867V8.3092ZM99.3889 3.14426V15.8258H97.7037V3.14426H99.3889Z" fill="white" fill-opacity="0.9"/>
<path d="M106.935 12.9167L113.196 3.14426H114.881V15.8258H113.196V6.04464L106.935 15.8258H105.259V3.14426H106.935V12.9167ZM111.406 0H112.716C112.716 0.452912 112.611 0.856469 112.401 1.21067C112.192 1.55906 111.892 1.83197 111.502 2.0294C111.112 2.22682 110.649 2.32553 110.114 2.32553C109.304 2.32553 108.664 2.11069 108.193 1.681C107.727 1.24551 107.494 0.685175 107.494 0H108.804C108.804 0.342588 108.903 0.644529 109.101 0.905825C109.299 1.16712 109.636 1.29777 110.114 1.29777C110.579 1.29777 110.911 1.16712 111.109 0.905825C111.307 0.644529 111.406 0.342588 111.406 0Z" fill="white" fill-opacity="0.9"/>
<path d="M128.838 3.14426L131.895 8.00435L134.951 3.14426H136.915L132.899 9.42406L137.011 15.8258H135.029L131.895 10.8699L128.76 15.8258H126.778L130.89 9.42406L126.874 3.14426H128.838Z" fill="white" fill-opacity="0.9"/>
<path d="M149.971 3.14426V4.52041H144.156V3.14426H149.971ZM151.421 3.14426V15.8258H149.736V3.14426H151.421ZM143.58 3.14426H145.256L144.968 9.35438C144.927 10.2486 144.857 11.047 144.758 11.7496C144.665 12.4464 144.531 13.0532 144.357 13.57C144.182 14.0809 143.955 14.5048 143.676 14.8416C143.396 15.1726 143.053 15.4193 142.645 15.5819C142.244 15.7445 141.761 15.8258 141.196 15.8258H140.742V14.4584L141.091 14.4322C141.417 14.409 141.696 14.3364 141.929 14.2145C142.168 14.0867 142.369 13.8951 142.532 13.6396C142.701 13.3841 142.837 13.0532 142.942 12.6467C143.047 12.2402 143.129 11.7438 143.187 11.1573C143.251 10.5651 143.3 9.87407 143.335 9.08438L143.58 3.14426Z" fill="white" fill-opacity="0.9"/>
<path d="M165.219 14.4584V15.8258H158.487V14.4584H165.219ZM158.827 3.14426V15.8258H157.142V3.14426H158.827ZM164.329 8.59662V9.96407H158.487V8.59662H164.329ZM165.132 3.14426V4.52041H158.487V3.14426H165.132Z" fill="white" fill-opacity="0.9"/>
<path d="M177.743 3.14426V4.52041H171.613V15.8258H169.936V3.14426H177.743ZM171.22 8.3092H174.686C175.618 8.3092 176.404 8.46598 177.044 8.77953C177.684 9.08728 178.17 9.51987 178.502 10.0773C178.834 10.6347 179 11.288 179 12.037C179 12.5944 178.907 13.1054 178.721 13.57C178.534 14.0287 178.258 14.4293 177.891 14.7719C177.524 15.1087 177.073 15.37 176.538 15.5558C176.002 15.7358 175.385 15.8258 174.686 15.8258H169.936V3.14426H171.621V14.4584H174.686C175.309 14.4584 175.813 14.3451 176.197 14.1187C176.587 13.8864 176.872 13.5845 177.053 13.2128C177.233 12.8412 177.323 12.4435 177.323 12.0196C177.323 11.5957 177.233 11.2067 177.053 10.8525C176.872 10.4983 176.587 10.2167 176.197 10.0076C175.813 9.79278 175.309 9.68536 174.686 9.68536H171.22V8.3092Z" fill="white" fill-opacity="0.9"/>
</g>
</g>
</svg>
