<svg width="121" height="34" viewBox="0 0 121 34" fill="none" xmlns="http://www.w3.org/2000/svg">
<g opacity="0.6">
<path d="M13.6677 33.6373L0 1.904H7.92003L19.868 30.0107H15.2065L27.3354 1.904H34.6218L20.9089 33.6373H13.6677Z" fill="#DADADA"/>
<path d="M45.2976 34C43.2761 34 41.4658 33.6071 39.8667 32.8213C38.2978 32.0356 37.0759 30.8418 36.2009 29.24C35.3259 27.608 34.8884 25.5378 34.8884 23.0293V9.248H41.9486V21.9867C41.9486 24.0116 42.371 25.5076 43.2158 26.4747C44.0907 27.4116 45.3127 27.88 46.8816 27.88C47.9678 27.88 48.9333 27.6533 49.7781 27.2C50.6229 26.7164 51.2867 25.9911 51.7694 25.024C52.2522 24.0267 52.4935 22.7876 52.4935 21.3067V9.248H59.5537V33.6373H52.8556V26.928L54.0775 28.8773C53.2629 30.5698 52.056 31.8542 50.4569 32.7307C48.888 33.5769 47.1683 34 45.2976 34Z" fill="#DADADA"/>
<path d="M65.1893 33.6373V9.248H71.9326V16.1387L70.9822 14.144C71.7063 12.4213 72.8679 11.1218 74.467 10.2453C76.0661 9.33867 78.0122 8.88534 80.3052 8.88534V15.4133C80.0035 15.3831 79.7319 15.368 79.4906 15.368C79.2492 15.3378 78.9927 15.3227 78.7212 15.3227C76.7902 15.3227 75.2213 15.8818 74.0144 17C72.8377 18.088 72.2494 19.7956 72.2494 22.1227V33.6373H65.1893Z" fill="#DADADA"/>
<path d="M97.9898 34C95.8477 34 94.0072 33.5467 92.4685 32.64C90.9297 31.7333 89.753 30.3582 88.9384 28.5147C88.1238 26.6409 87.7164 24.2836 87.7164 21.4427C87.7164 18.5716 88.1388 16.2142 88.9836 14.3707C89.8586 12.5271 91.0655 11.152 92.6042 10.2453C94.143 9.33867 95.9382 8.88534 97.9898 8.88534C100.283 8.88534 102.335 9.39911 104.145 10.4267C105.985 11.4542 107.434 12.9049 108.49 14.7787C109.576 16.6524 110.119 18.8738 110.119 21.4427C110.119 23.9813 109.576 26.1876 108.49 28.0613C107.434 29.9351 105.985 31.4009 104.145 32.4587C102.335 33.4862 100.283 34 97.9898 34ZM83.598 33.6373V0H90.6582V14.1893L90.2056 21.3973L90.3414 28.6507V33.6373H83.598ZM96.7679 28.1973C97.9446 28.1973 98.9855 27.9253 99.8906 27.3813C100.826 26.8373 101.565 26.0667 102.108 25.0693C102.682 24.0418 102.968 22.8329 102.968 21.4427C102.968 20.0222 102.682 18.8133 102.108 17.816C101.565 16.8187 100.826 16.048 99.8906 15.504C98.9855 14.96 97.9446 14.688 96.7679 14.688C95.5912 14.688 94.5352 14.96 93.5999 15.504C92.6646 16.048 91.9254 16.8187 91.3823 17.816C90.8392 18.8133 90.5676 20.0222 90.5676 21.4427C90.5676 22.8329 90.8392 24.0418 91.3823 25.0693C91.9254 26.0667 92.6646 26.8373 93.5999 27.3813C94.5352 27.9253 95.5912 28.1973 96.7679 28.1973Z" fill="#DADADA"/>
<path d="M113.94 33.6373V0H121V33.6373H113.94Z" fill="#DADADA"/>
</g>
</svg>
