<svg width="94" height="36" viewBox="0 0 94 36" fill="none" xmlns="http://www.w3.org/2000/svg">
<g opacity="0.6">
<g opacity="0.6">
<path d="M14.913 25.3955L14.8962 12.6431L17.843 12.6392L23.6187 20.4653C23.557 19.931 23.5014 19.4331 23.452 18.9717C23.4148 18.498 23.3897 17.994 23.3768 17.4597C23.3639 16.9253 23.357 16.3059 23.3561 15.6015L23.3522 12.632L26.5552 12.6278L26.5719 25.3803L23.5885 25.3842L17.8863 17.7219C17.948 18.2562 17.9913 18.7056 18.0162 19.0699C18.0532 19.4342 18.0781 19.7864 18.0908 20.1264C18.1034 20.4665 18.11 20.8612 18.1106 21.3106L18.116 25.3913L14.913 25.3955Z" fill="white"/>
<path d="M83.7463 25.4486L83.6157 12.6968L92.6935 12.6038L92.7216 15.3546L86.8284 15.4149L86.851 17.6192L91.9572 17.5669L91.9841 20.1901L86.8779 20.2424L86.9027 22.6652L93.0155 22.6026L93.0437 25.3534L83.7463 25.4486Z" fill="white"/>
<path d="M66.9245 25.3759L66.9695 12.6235L69.8796 12.6338L73.4648 18.458L77.1275 12.6593L79.9278 12.6692L79.8829 25.4216L76.6799 25.4103L76.6932 21.6393C76.6956 20.9591 76.71 20.3216 76.7365 19.7265C76.763 19.1315 76.8016 18.5608 76.8524 18.0145L73.9817 22.3949L72.7737 22.3906L70.0253 18.045C70.0723 18.5553 70.1009 19.102 70.111 19.685C70.1333 20.268 70.1433 20.9118 70.1408 21.6162L70.1275 25.3872L66.9245 25.3759Z" fill="white"/>
<path d="M5.52677 25.5078C4.45312 25.4914 3.50474 25.2643 2.6816 24.8266C1.85865 24.3767 1.21502 23.7717 0.75071 23.0115C0.286401 22.2513 0.0616714 21.3855 0.076522 20.414L0.196533 12.563L3.50896 12.6136L3.39146 20.3007C3.38125 20.9686 3.58631 21.5244 4.00664 21.9681C4.42698 22.4118 4.94826 22.6384 5.57048 22.6479C6.21711 22.6578 6.76337 22.4475 7.20927 22.017C7.65517 21.5866 7.88323 21.0374 7.89344 20.3695L8.01094 12.6824L11.2502 12.732L11.1302 20.5829C11.1153 21.5544 10.8642 22.413 10.3769 23.1587C9.88956 23.9043 9.22164 24.4893 8.37312 24.9136C7.53699 25.3259 6.58821 25.524 5.52677 25.5078Z" fill="white"/>
<path d="M43.1987 24.9029L44.1042 12.1826L47.3904 12.4165L46.688 22.2839L51.761 22.645L51.5579 25.498L43.1987 24.9029Z" fill="white"/>
<path d="M54.3317 25.5515L54.2734 12.7817L57.4766 12.7671L57.5349 25.5368L54.3317 25.5515Z" fill="white"/>
<path d="M35.8273 25.3794L36.0063 12.6108L39.2092 12.6558L39.0302 25.4244L35.8273 25.3794Z" fill="white"/>
<path fill-rule="evenodd" clip-rule="evenodd" d="M29.4246 17.7226C29.4246 7.93468 37.368 0 47.1667 0C56.9712 0 64.9089 7.9957 64.9089 17.7778C64.9089 27.6211 56.9216 35.6667 47.0558 35.6667H29.4246V17.7226ZM47.1667 2.65839C38.8378 2.65839 32.0859 9.40287 32.0859 17.7226V33.0083H47.0558C55.4402 33.0083 62.2475 26.1645 62.2475 17.7778C62.2475 9.45224 55.4898 2.65839 47.1667 2.65839Z" fill="#D5FF29"/>
</g>
</g>
</svg>
