<svg width="218" height="23" viewBox="0 0 218 23" fill="none" xmlns="http://www.w3.org/2000/svg">
<g opacity="0.6">
<g opacity="0.6">
<path d="M7.09543 22.6188L0 0.381214H5.20538L11.3713 20.0773H8.76859L15.2133 0.381214H19.861L26.0579 20.0773H23.5482L29.869 0.381214H34.6716L27.5761 22.6188H22.1848L16.7006 5.33702H18.1259L12.4867 22.6188H7.09543Z" fill="#DADADA"/>
<path d="M47.1164 23C45.4019 23 43.8114 22.7141 42.3448 22.1423C40.8989 21.5704 39.6388 20.7657 38.5647 19.7279C37.5112 18.6901 36.685 17.4724 36.0859 16.0746C35.5076 14.6768 35.2184 13.1519 35.2184 11.5C35.2184 9.84807 35.5076 8.3232 36.0859 6.92541C36.685 5.52762 37.5216 4.30985 38.5957 3.2721C39.6698 2.23435 40.9298 1.42956 42.3758 0.857733C43.8217 0.285911 45.3916 0 47.0854 0C48.7999 0 50.3698 0.285911 51.795 0.857733C53.241 1.42956 54.4907 2.23435 55.5442 3.2721C56.6183 4.30985 57.4549 5.52762 58.0539 6.92541C58.6529 8.30203 58.9524 9.82689 58.9524 11.5C58.9524 13.1519 58.6529 14.6874 58.0539 16.1064C57.4549 17.5041 56.6183 18.7219 55.5442 19.7597C54.4907 20.7762 53.241 21.5704 51.795 22.1423C50.3698 22.7141 48.8102 23 47.1164 23ZM47.0854 18.616C48.0563 18.616 48.9445 18.4466 49.7501 18.1077C50.5763 17.7689 51.2993 17.2818 51.919 16.6464C52.5387 16.011 53.0138 15.2592 53.3443 14.3909C53.6954 13.5226 53.871 12.5589 53.871 11.5C53.871 10.4411 53.6954 9.47744 53.3443 8.60912C53.0138 7.74079 52.5387 6.98895 51.919 6.35359C51.3199 5.71823 50.6073 5.23112 49.7811 4.89226C48.9548 4.55341 48.0563 4.38398 47.0854 4.38398C46.1146 4.38398 45.216 4.55341 44.3898 4.89226C43.5842 5.23112 42.8715 5.71823 42.2518 6.35359C41.6322 6.98895 41.1467 7.74079 40.7956 8.60912C40.4651 9.47744 40.2998 10.4411 40.2998 11.5C40.2998 12.5378 40.4651 13.5014 40.7956 14.3909C41.1467 15.2592 41.6218 16.011 42.2209 16.6464C42.8405 17.2818 43.5635 17.7689 44.3898 18.1077C45.216 18.4466 46.1146 18.616 47.0854 18.616Z" fill="#DADADA"/>
<path d="M72.6398 23C70.9253 23 69.3348 22.7141 67.8682 22.1423C66.4223 21.5704 65.1622 20.7657 64.0881 19.7279C63.0346 18.6901 62.2084 17.4724 61.6093 16.0746C61.031 14.6768 60.7418 13.1519 60.7418 11.5C60.7418 9.84807 61.031 8.3232 61.6093 6.92541C62.2084 5.52762 63.045 4.30985 64.1191 3.2721C65.1932 2.23435 66.4532 1.42956 67.8992 0.857733C69.3451 0.285911 70.915 0 72.6088 0C74.3233 0 75.8932 0.285911 77.3184 0.857733C78.7644 1.42956 80.0141 2.23435 81.0676 3.2721C82.1417 4.30985 82.9783 5.52762 83.5773 6.92541C84.1763 8.30203 84.4758 9.82689 84.4758 11.5C84.4758 13.1519 84.1763 14.6874 83.5773 16.1064C82.9783 17.5041 82.1417 18.7219 81.0676 19.7597C80.0141 20.7762 78.7644 21.5704 77.3184 22.1423C75.8932 22.7141 74.3336 23 72.6398 23ZM72.6088 18.616C73.5797 18.616 74.4679 18.4466 75.2735 18.1077C76.0997 17.7689 76.8227 17.2818 77.4424 16.6464C78.0621 16.011 78.5372 15.2592 78.8677 14.3909C79.2188 13.5226 79.3944 12.5589 79.3944 11.5C79.3944 10.4411 79.2188 9.47744 78.8677 8.60912C78.5372 7.74079 78.0621 6.98895 77.4424 6.35359C76.8433 5.71823 76.1307 5.23112 75.3045 4.89226C74.4782 4.55341 73.5797 4.38398 72.6088 4.38398C71.638 4.38398 70.7394 4.55341 69.9132 4.89226C69.1076 5.23112 68.3949 5.71823 67.7752 6.35359C67.1556 6.98895 66.6701 7.74079 66.319 8.60912C65.9885 9.47744 65.8232 10.4411 65.8232 11.5C65.8232 12.5378 65.9885 13.5014 66.319 14.3909C66.6701 15.2592 67.1452 16.011 67.7443 16.6464C68.364 17.2818 69.0869 17.7689 69.9132 18.1077C70.7394 18.4466 71.638 18.616 72.6088 18.616Z" fill="#DADADA"/>
<path d="M87.6285 22.6188V0.381214H97.4815C99.8364 0.381214 101.912 0.847145 103.709 1.77901C105.507 2.68969 106.911 3.97099 107.923 5.62293C108.935 7.27486 109.442 9.23389 109.442 11.5C109.442 13.7449 108.935 15.704 107.923 17.3771C106.911 19.029 105.507 20.3209 103.709 21.2528C101.912 22.1634 99.8364 22.6188 97.4815 22.6188H87.6285ZM92.648 18.3936H97.2337C98.6796 18.3936 99.9293 18.1183 100.983 17.5677C102.057 16.9959 102.883 16.1911 103.462 15.1533C104.061 14.1156 104.36 12.8978 104.36 11.5C104.36 10.081 104.061 8.86326 103.462 7.84668C102.883 6.80893 102.057 6.01473 100.983 5.46409C99.9293 4.89227 98.6796 4.60635 97.2337 4.60635H92.648V18.3936Z" fill="#DADADA"/>
<path d="M119.734 23C117.999 23 116.336 22.767 114.745 22.3011C113.155 21.814 111.874 21.1892 110.903 20.4268L112.607 16.5511C113.537 17.2288 114.632 17.7901 115.892 18.2348C117.172 18.6584 118.463 18.8702 119.765 18.8702C120.756 18.8702 121.551 18.7749 122.15 18.5843C122.77 18.3725 123.225 18.0866 123.514 17.7265C123.803 17.3665 123.948 16.9535 123.948 16.4876C123.948 15.8946 123.72 15.4286 123.266 15.0898C122.811 14.7297 122.212 14.4438 121.469 14.232C120.725 13.9991 119.899 13.7873 118.99 13.5967C118.102 13.3849 117.203 13.1308 116.294 12.8343C115.406 12.5378 114.59 12.1565 113.847 11.6906C113.103 11.2247 112.494 10.6105 112.019 9.84807C111.564 9.08563 111.337 8.11142 111.337 6.92541C111.337 5.6547 111.667 4.50046 112.328 3.46271C113.01 2.40377 114.022 1.56722 115.365 0.953038C116.728 0.31768 118.432 0 120.477 0C121.841 0 123.183 0.169429 124.505 0.508286C125.827 0.825966 126.994 1.31307 128.007 1.96961L126.457 5.87707C125.445 5.28407 124.433 4.84991 123.421 4.57459C122.409 4.27808 121.417 4.12983 120.446 4.12983C119.475 4.12983 118.68 4.24632 118.061 4.47928C117.441 4.71225 116.997 5.01934 116.728 5.40055C116.46 5.76059 116.325 6.18416 116.325 6.67127C116.325 7.24309 116.553 7.70902 117.007 8.06906C117.461 8.40792 118.061 8.68324 118.804 8.89503C119.548 9.10681 120.364 9.3186 121.252 9.53039C122.161 9.74217 123.059 9.98573 123.948 10.261C124.856 10.5364 125.683 10.907 126.426 11.3729C127.17 11.8389 127.769 12.453 128.223 13.2155C128.699 13.9779 128.936 14.9415 128.936 16.1064C128.936 17.3559 128.595 18.4995 127.914 19.5373C127.232 20.575 126.209 21.4116 124.846 22.047C123.503 22.6823 121.799 23 119.734 23Z" fill="#DADADA"/>
<path d="M135.936 22.6188V4.57459H128.996V0.381214H147.896V4.57459H140.956V22.6188H135.936Z" fill="#DADADA"/>
<path d="M160.209 23C158.495 23 156.904 22.7141 155.438 22.1423C153.992 21.5704 152.732 20.7657 151.658 19.7279C150.604 18.6901 149.778 17.4724 149.179 16.0746C148.601 14.6768 148.311 13.1519 148.311 11.5C148.311 9.84807 148.601 8.3232 149.179 6.92541C149.778 5.52762 150.615 4.30985 151.689 3.2721C152.763 2.23435 154.023 1.42956 155.469 0.857733C156.915 0.285911 158.485 0 160.178 0C161.893 0 163.463 0.285911 164.888 0.857733C166.334 1.42956 167.584 2.23435 168.637 3.2721C169.711 4.30985 170.548 5.52762 171.147 6.92541C171.746 8.30203 172.046 9.82689 172.046 11.5C172.046 13.1519 171.746 14.6874 171.147 16.1064C170.548 17.5041 169.711 18.7219 168.637 19.7597C167.584 20.7762 166.334 21.5704 164.888 22.1423C163.463 22.7141 161.903 23 160.209 23ZM160.178 18.616C161.149 18.616 162.038 18.4466 162.843 18.1077C163.669 17.7689 164.392 17.2818 165.012 16.6464C165.632 16.011 166.107 15.2592 166.437 14.3909C166.789 13.5226 166.964 12.5589 166.964 11.5C166.964 10.4411 166.789 9.47744 166.437 8.60912C166.107 7.74079 165.632 6.98895 165.012 6.35359C164.413 5.71823 163.7 5.23112 162.874 4.89226C162.048 4.55341 161.149 4.38398 160.178 4.38398C159.208 4.38398 158.309 4.55341 157.483 4.89226C156.677 5.23112 155.965 5.71823 155.345 6.35359C154.725 6.98895 154.24 7.74079 153.889 8.60912C153.558 9.47744 153.393 10.4411 153.393 11.5C153.393 12.5378 153.558 13.5014 153.889 14.3909C154.24 15.2592 154.715 16.011 155.314 16.6464C155.934 17.2818 156.657 17.7689 157.483 18.1077C158.309 18.4466 159.208 18.616 160.178 18.616Z" fill="#DADADA"/>
<path d="M185.578 23C183.905 23 182.345 22.7247 180.899 22.174C179.474 21.6022 178.235 20.7974 177.181 19.7597C176.128 18.7219 175.301 17.5041 174.702 16.1064C174.124 14.7086 173.835 13.1731 173.835 11.5C173.835 9.82689 174.124 8.29144 174.702 6.89365C175.301 5.49586 176.128 4.27808 177.181 3.24033C178.255 2.20258 179.505 1.40838 180.93 0.857733C182.356 0.285911 183.915 0 185.609 0C187.489 0 189.182 0.338859 190.69 1.01658C192.219 1.67311 193.5 2.64733 194.532 3.93923L191.31 6.98895C190.566 6.12062 189.74 5.47468 188.831 5.0511C187.922 4.60635 186.931 4.38398 185.857 4.38398C184.845 4.38398 183.915 4.55341 183.068 4.89226C182.221 5.23112 181.488 5.71823 180.868 6.35359C180.249 6.98895 179.763 7.74079 179.412 8.60912C179.082 9.47744 178.916 10.4411 178.916 11.5C178.916 12.5589 179.082 13.5226 179.412 14.3909C179.763 15.2592 180.249 16.011 180.868 16.6464C181.488 17.2818 182.221 17.7689 183.068 18.1077C183.915 18.4466 184.845 18.616 185.857 18.616C186.931 18.616 187.922 18.4042 188.831 17.9807C189.74 17.5359 190.566 16.8688 191.31 15.9793L194.532 19.029C193.5 20.3209 192.219 21.3057 190.69 21.9834C189.182 22.6611 187.478 23 185.578 23Z" fill="#DADADA"/>
<path d="M201.795 17.5359L201.516 11.5953L211.896 0.381214H217.473L208.116 10.7058L205.327 13.7555L201.795 17.5359ZM197.302 22.6188V0.381214H202.291V22.6188H197.302ZM212.144 22.6188L204.429 12.9296L207.713 9.27624L218 22.6188H212.144Z" fill="#DADADA"/>
</g>
</g>
</svg>
